<?xml version="1.0" encoding="UTF-8" standalone="no"?>
<!DOCTYPE svg PUBLIC "-//W3C//DTD SVG 1.1//EN" "http://www.w3.org/Graphics/SVG/1.1/DTD/svg11.dtd">
<svg width="100%" height="100%" viewBox="0 0 1024 1024" version="1.1" xmlns="http://www.w3.org/2000/svg" xmlns:xlink="http://www.w3.org/1999/xlink" xml:space="preserve" xmlns:serif="http://www.serif.com/" style="fill-rule:evenodd;clip-rule:evenodd;stroke-linejoin:round;stroke-miterlimit:2;">
    <rect x="0" y="0" width="1024" height="1024" style="fill:url(#_Radial1);"/>
    <g transform="matrix(1,0,0,1,-9.15721,87.0731)">
        <g transform="matrix(1,0,0,1.37006,0,-304.52)">
            <path d="M352.366,398.304L559,398.304L559,822.594L455.498,822.894C398.578,822.894 352.366,776.737 352.366,719.884L352.366,398.304Z" style="fill:url(#_Linear2);"/>
        </g>
        <g transform="matrix(1,0,0,1.37006,0,-304.52)">
            <path d="M558.63,289.905L352.366,289.905L352.366,278.589C352.366,258.465 374.687,242.14 402.258,242.1L508.564,241.946C521.834,241.926 534.568,245.76 543.96,252.602C553.352,259.443 558.63,268.731 558.63,278.416L558.63,289.905Z" style="fill:url(#_Linear3);"/>
        </g>
        <g transform="matrix(-1,0,0,1.37006,1117.26,-304.52)">
            <path d="M352.366,398.304L352.366,719.884C352.366,776.737 398.578,822.894 455.498,822.894L558.63,822.594L558.63,398.304L352.366,398.304Z" style="fill:url(#_Linear4);"/>
        </g>
        <g transform="matrix(-1,0,0,1.37006,1117.26,-304.52)">
            <path d="M558.63,289.905L558.63,278.446C558.63,268.753 553.348,259.458 543.948,252.611C534.548,245.763 521.803,241.926 508.523,241.946L402.256,242.1C374.686,242.14 352.366,258.465 352.366,278.588L352.366,289.905L558.63,289.905Z" style="fill:url(#_Linear5);"/>
        </g>
        <g transform="matrix(-1,-1.22465e-16,1.22465e-16,-1,1117.26,579.029)">
            <path d="M558.63,241.481L764.895,337.548L352.366,337.548L558.63,241.481Z" style="fill:url(#_Linear6);"/>
        </g>
        <g transform="matrix(1,0,0,0.997122,-9.09495e-13,0.994688)">
            <rect x="352.366" y="91.937" width="412.529" height="149.243" style="fill:rgb(219,219,219);"/>
        </g>
        <path d="M353.822,613.256L764.895,611.525C668.492,649.896 622.611,719.611 639.352,822.894L341.944,821.786C263.074,819.072 228.471,753.318 229.439,715.521C230.483,674.781 265.087,608.309 353.822,613.256Z" style="fill:url(#_Linear7);"/>
        <g transform="matrix(1,0,0,1,3.55833,-1.07154)">
            <circle cx="459.94" cy="172.744" r="30.006"/>
        </g>
        <g transform="matrix(1,0,0,1,193.823,-1.07154)">
            <circle cx="459.94" cy="172.744" r="30.006"/>
        </g>
    </g>
    <defs>
        <radialGradient id="_Radial1" cx="0" cy="0" r="1" gradientUnits="userSpaceOnUse" gradientTransform="matrix(3.39712e-14,554.792,-554.792,3.39712e-14,512,512)"><stop offset="0" style="stop-color:rgb(65,15,17);stop-opacity:1"/><stop offset="0.58" style="stop-color:rgb(31,5,6);stop-opacity:1"/><stop offset="1" style="stop-color:rgb(16,1,1);stop-opacity:1"/></radialGradient>
        <linearGradient id="_Linear2" x1="0" y1="0" x2="1" y2="0" gradientUnits="userSpaceOnUse" gradientTransform="matrix(206.264,-0.307038,0.42066,150.551,352.366,567.934)"><stop offset="0" style="stop-color:rgb(102,36,43);stop-opacity:1"/><stop offset="1" style="stop-color:rgb(64,22,22);stop-opacity:1"/></linearGradient>
        <linearGradient id="_Linear3" x1="0" y1="0" x2="1" y2="0" gradientUnits="userSpaceOnUse" gradientTransform="matrix(-1.07137e-12,72.2791,-99.0267,-7.81985e-13,455.498,230.06)"><stop offset="0" style="stop-color:rgb(69,1,7);stop-opacity:1"/><stop offset="1" style="stop-color:rgb(212,26,63);stop-opacity:1"/></linearGradient>
        <linearGradient id="_Linear4" x1="0" y1="0" x2="1" y2="0" gradientUnits="userSpaceOnUse" gradientTransform="matrix(-206.264,0.98388,1.34797,150.551,558.63,557.014)"><stop offset="0" style="stop-color:rgb(33,4,3);stop-opacity:1"/><stop offset="1" style="stop-color:rgb(63,8,9);stop-opacity:1"/></linearGradient>
        <linearGradient id="_Linear5" x1="0" y1="0" x2="1" y2="0" gradientUnits="userSpaceOnUse" gradientTransform="matrix(-5.73559e-15,68.3687,93.6693,4.18638e-15,455.498,231.664)"><stop offset="0" style="stop-color:rgb(36,3,2);stop-opacity:1"/><stop offset="1" style="stop-color:rgb(123,29,31);stop-opacity:1"/></linearGradient>
        <linearGradient id="_Linear6" x1="0" y1="0" x2="1" y2="0" gradientUnits="userSpaceOnUse" gradientTransform="matrix(7.90352e-13,130.498,-130.498,7.90352e-13,558.63,225.107)"><stop offset="0" style="stop-color:rgb(138,45,59);stop-opacity:1"/><stop offset="1" style="stop-color:rgb(136,38,56);stop-opacity:1"/></linearGradient>
        <linearGradient id="_Linear7" x1="0" y1="0" x2="1" y2="0" gradientUnits="userSpaceOnUse" gradientTransform="matrix(479.318,-1.69407,1.69407,479.318,229.42,717.077)"><stop offset="0" style="stop-color:rgb(221,27,74);stop-opacity:1"/><stop offset="0.47" style="stop-color:rgb(118,17,48);stop-opacity:1"/><stop offset="1" style="stop-color:rgb(87,14,40);stop-opacity:1"/></linearGradient>
    </defs>
</svg>
